<svg xmlns="http://www.w3.org/2000/svg" viewBox="0 0 32 32" role="img" aria-label="Hockley Mint">
  <rect width="32" height="32" fill="#003D22"/>
  <path
    fill="#00A478"
    transform="translate(7.5 11) scale(1.05)"
    d="M52.6722 8.42706L59.5467 5.08662V8.6331H52.8804L52.6743 8.42706H52.6722ZM60.1398 5.08662L67.0122 8.42706L66.8041 8.6331H60.1377V5.08662H60.1398ZM52.0541 7.80892V4.90971H58.556L52.231 7.98375L52.0541 7.80684V7.80892ZM61.1305 4.90971H67.6303V7.80684L67.4534 7.98375L61.1284 4.90971H61.1305ZM67.4597 1.24044L67.6303 1.41318V4.31655H61.1305L67.4597 1.24044ZM52.0541 1.40902L52.2227 1.24044L58.556 4.31863H52.0541V1.40902ZM52.666 0.797126L52.87 0.593162H59.5467V4.13964L52.666 0.797126ZM60.1398 0.593162H66.8124L67.0163 0.797126L60.1398 4.13964V0.593162ZM52.6244 0L51.4609 1.16343V8.05451L52.6348 9.22834H67.0496L68.2235 8.05451V1.16759L67.058 0H52.6244Z"
  />
</svg>
